# Alias OBJ Model File
# Exported from SketchUp, (c) 2000-2012 Trimble Navigation Limited
# File units = inches

mtllib grid.mtl

g Mesh1 Model

usemtl FrontColor
v 0 224.69 620.694
vt -620.694 224.69
vn 1 0 -0
v 0 224.69 613.271
vt -613.271 224.69
v 0 312.651 613.271
vt -613.271 312.651
v 0 312.651 620.694
vt -620.694 312.651
f 1/1/1 2/2/1 3/3/1 4/4/1 

g Mesh2 Model

v 0 225.119 607.244
vt -607.244 225.119
v 0 225.119 599.821
vt -599.821 225.119
v 0 313.081 599.821
vt -599.821 313.081
v 0 313.081 607.244
vt -607.244 313.081
f 5/5/1 6/6/1 7/7/1 8/8/1 

g Mesh3 Model

v 0 224.748 594.074
vt -594.074 224.748
v 0 224.748 586.651
vt -586.651 224.748
v 0 312.71 586.651
vt -586.651 312.71
v 0 312.71 594.074
vt -594.074 312.71
f 9/9/1 10/10/1 11/11/1 12/12/1 

g Mesh4 Model

v 0 225.21 580.292
vt -580.292 225.21
v 0 225.21 572.869
vt -572.869 225.21
v 0 313.171 572.869
vt -572.869 313.171
v 0 313.171 580.292
vt -580.292 313.171
f 13/13/1 14/14/1 15/15/1 16/16/1 

g Mesh5 Model

v 0 225.25 567.339
vt -567.339 225.25
v 0 225.25 559.916
vt -559.916 225.25
v 0 313.211 559.916
vt -559.916 313.211
v 0 313.211 567.339
vt -567.339 313.211
f 17/17/1 18/18/1 19/19/1 20/20/1 

g Mesh6 Model

v 0 225.713 553.123
vt -553.123 225.713
v 0 225.713 545.7
vt -545.7 225.713
v 0 313.674 545.7
vt -545.7 313.674
v 0 313.674 553.123
vt -553.123 313.674
f 21/21/1 22/22/1 23/23/1 24/24/1 

g Mesh7 Model

v 0 225.336 539.318
vt -539.318 225.336
v 0 225.336 531.895
vt -531.895 225.336
v 0 313.297 531.895
vt -531.895 313.297
v 0 313.297 539.318
vt -539.318 313.297
f 25/25/1 26/26/1 27/27/1 28/28/1 

g Mesh8 Model

v 0 225.374 526.761
vt -526.761 225.374
v 0 225.374 519.338
vt -519.338 225.374
v 0 313.335 519.338
vt -519.338 313.335
v 0 313.335 526.761
vt -526.761 313.335
f 29/29/1 30/30/1 31/31/1 32/32/1 

g Mesh9 Model

v 0 224.995 513.359
vt -513.359 224.995
v 0 224.995 505.936
vt -505.936 224.995
v 0 312.956 505.936
vt -505.936 312.956
v 0 312.956 513.359
vt -513.359 312.956
f 33/33/1 34/34/1 35/35/1 36/36/1 

g Mesh10 Model

v 0 225.458 499.53
vt -499.53 225.458
v 0 225.458 492.107
vt -492.107 225.458
v 0 313.419 492.107
vt -492.107 313.419
v 0 313.419 499.53
vt -499.53 313.419
f 37/37/1 38/38/1 39/39/1 40/40/1 

g Mesh11 Model

v 0 225.5 485.693
vt -485.693 225.5
v 0 225.5 478.27
vt -478.27 225.5
v 0 313.461 478.27
vt -478.27 313.461
v 0 313.461 485.693
vt -485.693 313.461
f 41/41/1 42/42/1 43/43/1 44/44/1 

g Mesh12 Model

v 0 226.389 470.169
vt -470.169 226.389
v 0 226.389 462.745
vt -462.745 226.389
v 0 314.35 462.745
vt -462.745 314.35
v 0 314.35 470.169
vt -470.169 314.35
f 45/45/1 46/46/1 47/47/1 48/48/1 

g Mesh13 Model

v 0 226.009 456.734
vt -456.734 226.009
v 0 226.009 449.311
vt -449.311 226.009
v 0 313.971 449.311
vt -449.311 313.971
v 0 313.971 456.734
vt -456.734 313.971
f 49/49/1 50/50/1 51/51/1 52/52/1 

g Mesh14 Model

v 0 225.213 442.032
vt -442.032 225.213
v 0 225.213 434.609
vt -434.609 225.213
v 0 313.175 434.609
vt -434.609 313.175
v 0 313.175 442.032
vt -442.032 313.175
f 53/53/1 54/54/1 55/55/1 56/56/1 

g Mesh15 Model

v 0 129.916 620.869
vt -620.869 129.916
v 0 129.916 613.446
vt -613.446 129.916
v 0 217.877 613.446
vt -613.446 217.877
v 0 217.877 620.869
vt -620.869 217.877
f 57/57/1 58/58/1 59/59/1 60/60/1 

g Mesh16 Model

v 0 131.609 606.68
vt -606.68 131.609
v 0 131.609 599.257
vt -599.257 131.609
v 0 219.57 599.257
vt -599.257 219.57
v 0 219.57 606.68
vt -606.68 219.57
f 61/61/1 62/62/1 63/63/1 64/64/1 

g Mesh17 Model

v 0 130.785 592.484
vt -592.484 130.785
v 0 130.785 585.061
vt -585.061 130.785
v 0 218.746 585.061
vt -585.061 218.746
v 0 218.746 592.484
vt -592.484 218.746
f 65/65/1 66/66/1 67/67/1 68/68/1 

g Mesh18 Model

v 0 131.638 579.115
vt -579.115 131.638
v 0 131.638 571.692
vt -571.692 131.638
v 0 219.599 571.692
vt -571.692 219.599
v 0 219.599 579.115
vt -579.115 219.599
f 69/69/1 70/70/1 71/71/1 72/72/1 

g Mesh19 Model

v 0 131.232 566.575
vt -566.575 131.232
v 0 131.232 559.151
vt -559.151 131.232
v 0 219.193 559.151
vt -559.151 219.193
v 0 219.193 566.575
vt -566.575 219.193
f 73/73/1 74/74/1 75/75/1 76/76/1 

g Mesh20 Model

v 0 130.825 553.609
vt -553.609 130.825
v 0 130.825 546.186
vt -546.186 130.825
v 0 218.787 546.186
vt -546.186 218.787
v 0 218.787 553.609
vt -553.609 218.787
f 77/77/1 78/78/1 79/79/1 80/80/1 

g Mesh21 Model

v 0 130.841 538.962
vt -538.962 130.841
v 0 130.841 531.539
vt -531.539 130.841
v 0 218.802 531.539
vt -531.539 218.802
v 0 218.802 538.962
vt -538.962 218.802
f 81/81/1 82/82/1 83/83/1 84/84/1 

g Mesh22 Model

v 0 130.013 526.82
vt -526.82 130.013
v 0 130.013 519.397
vt -519.397 130.013
v 0 217.974 519.397
vt -519.397 217.974
v 0 217.974 526.82
vt -526.82 217.974
f 85/85/1 86/86/1 87/87/1 88/88/1 

g Mesh23 Model

v 0 131.286 514.67
vt -514.67 131.286
v 0 131.286 507.246
vt -507.246 131.286
v 0 219.248 507.246
vt -507.246 219.248
v 0 219.248 514.67
vt -514.67 219.248
f 89/89/1 90/90/1 91/91/1 92/92/1 

g Mesh24 Model

v 0 131.722 500.417
vt -500.417 131.722
v 0 131.722 492.994
vt -492.994 131.722
v 0 219.683 492.994
vt -492.994 219.683
v 0 219.683 500.417
vt -500.417 219.683
f 93/93/1 94/94/1 95/95/1 96/96/1 

g Mesh25 Model

v 0 131.737 486.156
vt -486.156 131.737
v 0 131.737 478.733
vt -478.733 131.737
v 0 219.698 478.733
vt -478.733 219.698
v 0 219.698 486.156
vt -486.156 219.698
f 97/97/1 98/98/1 99/99/1 100/100/1 

g Mesh26 Model

v 0 132.173 471.887
vt -471.887 132.173
v 0 132.173 464.464
vt -464.464 132.173
v 0 220.134 464.464
vt -464.464 220.134
v 0 220.134 471.887
vt -471.887 220.134
f 101/101/1 102/102/1 103/103/1 104/104/1 

g Mesh27 Model

v 0 132.188 457.608
vt -457.608 132.188
v 0 132.188 450.185
vt -450.185 132.188
v 0 220.15 450.185
vt -450.185 220.15
v 0 220.15 457.608
vt -457.608 220.15
f 105/105/1 106/106/1 107/107/1 108/108/1 

g Mesh28 Model

v 0 133.046 442.901
vt -442.901 133.046
v 0 133.046 435.478
vt -435.478 133.046
v 0 221.007 435.478
vt -435.478 221.007
v 0 221.007 442.901
vt -442.901 221.007
f 109/109/1 110/110/1 111/111/1 112/112/1 

g Mesh29 Model

v 0 36.3595 621.376
vt -621.376 36.3595
v 0 36.3595 613.953
vt -613.953 36.3595
v 0 124.321 613.953
vt -613.953 124.321
v 0 124.321 621.376
vt -621.376 124.321
f 113/113/1 114/114/1 115/115/1 116/116/1 

g Mesh30 Model

v 0 35.9271 608.437
vt -608.437 35.9271
v 0 35.9271 601.014
vt -601.014 35.9271
v 0 123.888 601.014
vt -601.014 123.888
v 0 123.888 608.437
vt -608.437 123.888
f 117/117/1 118/118/1 119/119/1 120/120/1 

g Mesh31 Model

v 0 36.3327 593.819
vt -593.819 36.3327
v 0 36.3327 586.395
vt -586.395 36.3327
v 0 124.294 586.395
vt -586.395 124.294
v 0 124.294 593.819
vt -593.819 124.294
f 121/121/1 122/122/1 123/123/1 124/124/1 

g Mesh32 Model

v 0 36.3189 579.61
vt -579.61 36.3189
v 0 36.3189 572.187
vt -572.187 36.3189
v 0 124.28 572.187
vt -572.187 124.28
v 0 124.28 579.61
vt -579.61 124.28
f 125/125/1 126/126/1 127/127/1 128/128/1 

g Mesh33 Model

v 0 36.7268 567.065
vt -567.065 36.7268
v 0 36.7268 559.642
vt -559.642 36.7268
v 0 124.688 559.642
vt -559.642 124.688
v 0 124.688 567.065
vt -567.065 124.688
f 129/129/1 130/130/1 131/131/1 132/132/1 

g Mesh34 Model

v 0 36.7143 554.095
vt -554.095 36.7143
v 0 36.7143 546.672
vt -546.672 36.7143
v 0 124.676 546.672
vt -546.672 124.676
v 0 124.676 554.095
vt -554.095 124.676
f 133/133/1 134/134/1 135/135/1 136/136/1 

g Mesh35 Model

v 0 36.7006 539.862
vt -539.862 36.7006
v 0 36.7006 532.439
vt -532.439 36.7006
v 0 124.662 532.439
vt -532.439 124.662
v 0 124.662 539.862
vt -539.862 124.662
f 137/137/1 138/138/1 139/139/1 140/140/1 

g Mesh36 Model

v 0 37.1094 527.715
vt -527.715 37.1094
v 0 37.1094 520.292
vt -520.292 37.1094
v 0 125.071 520.292
vt -520.292 125.071
v 0 125.071 527.715
vt -527.715 125.071
f 141/141/1 142/142/1 143/143/1 144/144/1 

g Mesh37 Model

v 0 37.0978 515.562
vt -515.562 37.0978
v 0 37.0978 508.139
vt -508.139 37.0978
v 0 125.059 508.139
vt -508.139 125.059
v 0 125.059 515.562
vt -515.562 125.059
f 145/145/1 146/146/1 147/147/1 148/148/1 

g Mesh38 Model

v 0 37.5037 500.047
vt -500.047 37.5037
v 0 37.5037 492.624
vt -492.624 37.5037
v 0 125.465 492.624
vt -492.624 125.465
v 0 125.465 500.047
vt -500.047 125.465
f 149/149/1 150/150/1 151/151/1 152/152/1 

g Mesh39 Model

v 0 37.0697 486.201
vt -486.201 37.0697
v 0 37.0697 478.778
vt -478.778 37.0697
v 0 125.031 478.778
vt -478.778 125.031
v 0 125.031 486.201
vt -486.201 125.031
f 153/153/1 154/154/1 155/155/1 156/156/1 

g Mesh40 Model

v 0 37.8985 472.346
vt -472.346 37.8985
v 0 37.8985 464.923
vt -464.923 37.8985
v 0 125.86 464.923
vt -464.923 125.86
v 0 125.86 472.346
vt -472.346 125.86
f 157/157/1 158/158/1 159/159/1 160/160/1 

g Mesh41 Model

v 0 38.7282 458.903
vt -458.903 38.7282
v 0 38.7282 451.48
vt -451.48 38.7282
v 0 126.689 451.48
vt -451.48 126.689
v 0 126.689 458.903
vt -458.903 126.689
f 161/161/1 162/162/1 163/163/1 164/164/1 

g Mesh42 Model

v 0 38.2922 442.931
vt -442.931 38.2922
v 0 38.2922 435.508
vt -435.508 38.2922
v 0 126.254 435.508
vt -435.508 126.254
v 0 126.254 442.931
vt -442.931 126.254
f 165/165/1 166/166/1 167/167/1 168/168/1 

